<svg width="1253" height="766" viewBox="0 0 1253 766" fill="none" xmlns="http://www.w3.org/2000/svg">
<path style="mix-blend-mode:color-dodge" d="M-87.0957 482.167L-179.964 428.551L-181.417 429.392L-88.5643 483.008L-87.0957 482.167ZM-94.3159 486.327L-187.184 432.788L-188.637 433.629L-95.7691 487.169L-94.3159 486.327ZM-108.756 494.664L-201.609 441.048L-203.139 441.89L-110.271 495.506L-108.756 494.664ZM-137.622 511.338L-230.49 457.722L-232.019 458.563L-139.151 512.179L-137.622 511.338ZM-123.181 503.001L-216.049 449.385L-217.502 450.227L-124.65 503.842L-123.181 503.001ZM-115.976 498.84L-208.829 445.301L-210.282 446.142L-117.43 499.758L-115.976 498.84ZM-101.536 490.58L-194.389 436.964L-195.918 437.805L-102.989 491.345L-101.536 490.58ZM-79.8755 478.082L-172.744 424.543L-174.197 425.384L-81.3441 478.924L-79.8755 478.082ZM-58.2303 465.569L-151.083 411.877L-152.613 412.718L-59.7447 466.258L-58.2303 465.569ZM-130.401 507.162L-223.269 453.622L-224.723 454.464L-131.855 508.003L-130.401 507.162ZM-65.4505 469.669L-158.303 416.053L-159.833 416.894L-66.9649 470.51L-65.4505 469.669ZM-72.6707 473.83L-165.523 420.214L-167.053 421.055L-74.078 474.671L-72.6707 473.83ZM424.313 186.904L331.445 133.365L329.915 134.206L422.844 187.7L424.313 186.904ZM388.212 207.739L295.359 154.199L293.906 155.041L386.759 208.657L388.212 207.739ZM395.432 203.578L302.579 150.039L301.05 150.88L394.01 204.419L395.432 203.578ZM445.912 174.407L353.06 120.867L351.53 121.709L444.49 175.248L445.912 174.407ZM453.132 170.231L360.356 116.63L358.827 117.471L451.694 171.011L453.132 170.231ZM438.738 178.522L345.885 124.982L344.356 125.823L437.208 179.439L438.738 178.522ZM460.398 166.024L367.531 112.485L366.077 113.326L458.945 166.942L460.398 166.024ZM467.619 161.863L374.751 108.324L373.221 109.165L466.074 162.781L467.619 161.863ZM402.652 199.356L309.876 145.786L308.346 146.627L401.214 200.167L402.652 199.356ZM417.093 191.019L324.225 137.48L322.772 138.321L415.64 191.861L417.093 191.019ZM409.872 195.195L317.005 141.625L315.475 142.467L408.343 196.006L409.872 195.195ZM431.518 182.698L338.665 129.082L337.212 129.923L430.065 183.539L431.518 182.698ZM388.258 791.517L481.111 845.133L482.564 844.292L389.711 790.753L388.258 791.517ZM381.038 795.694L473.89 849.309L475.42 848.468L382.552 794.929L381.038 795.694ZM373.818 799.854L466.67 853.394L468.2 852.552L375.332 799.013L373.818 799.854ZM395.539 787.464L488.407 841.003L489.86 840.162L397.008 786.546L395.539 787.464ZM366.597 804.168L459.465 857.708L460.919 856.866L368.051 803.327L366.597 804.168ZM438.769 762.484L531.636 816.023L533.09 815.182L440.237 761.566L438.769 762.484ZM431.564 766.66L524.416 820.276L525.87 819.434L433.017 765.819L431.564 766.66ZM424.343 770.821L517.196 824.437L518.726 823.595L425.858 770.056L424.343 770.821ZM446.019 758.277L538.887 811.817L540.34 810.975L447.488 757.359L446.019 758.277ZM402.714 783.272L495.581 836.812L497.035 835.97L404.182 782.355L402.714 783.272ZM417.154 774.951L510.006 828.49L511.536 827.649L418.668 774.109L417.154 774.951ZM409.934 779.112L502.802 832.651L504.255 831.81L411.387 778.27L409.934 779.112ZM950.177 467.206L1043.05 520.746L1044.57 519.904L951.722 466.365L950.177 467.206ZM957.397 463.045L1050.25 516.585L1051.78 515.744L958.912 462.128L957.397 463.045ZM971.838 454.709L1064.69 508.248L1066.22 507.407L973.291 453.867L971.838 454.709ZM964.587 458.869L1057.44 512.409L1058.97 511.583L966.101 458.043L964.587 458.869ZM942.926 471.367L1035.79 524.983L1037.25 524.142L944.395 470.526L942.926 471.367ZM899.621 496.362L992.489 549.978L994.018 549.137L901.166 495.597L899.621 496.362ZM935.721 475.528L1028.57 529.067L1030.03 528.226L937.175 474.61L935.721 475.528ZM906.841 492.201L999.77 545.817L1001.22 544.976L908.37 491.36L906.841 492.201ZM892.416 500.538L985.268 554.154L986.798 553.313L893.9 499.758L892.416 500.538ZM914.107 488.041L1006.97 541.58L1008.43 540.739L915.56 487.199L914.107 488.041ZM928.547 479.704L1021.4 533.32L1022.93 532.478L930.062 478.862L928.547 479.704ZM921.327 483.865L1014.19 537.481L1015.72 536.639L922.857 483.023L921.327 483.865ZM70.4325 764.228L198.208 690.496H147.024L75.0216 732.073C73.503 731.602 71.8615 731.728 70.4325 732.425C70.1066 732.543 69.8249 732.758 69.6258 733.041C69.4266 733.324 69.3197 733.662 69.3197 734.008C69.3197 734.355 69.4266 734.693 69.6258 734.976C69.8249 735.259 70.1066 735.474 70.4325 735.592C71.2826 736.017 72.2201 736.239 73.1707 736.239C74.1213 736.239 75.0588 736.017 75.9089 735.592C77.1785 734.873 77.4386 733.771 76.536 732.915L147.942 691.689H193.221L69.0252 763.386L70.4325 764.228ZM110.801 770.071C110.468 770.181 110.178 770.393 109.973 770.678C109.767 770.962 109.657 771.304 109.657 771.654C109.657 772.005 109.767 772.347 109.973 772.631C110.178 772.915 110.468 773.128 110.801 773.238C111.651 773.663 112.589 773.884 113.539 773.884C114.49 773.884 115.428 773.663 116.278 773.238C117.532 772.503 117.731 771.402 116.889 770.561L181.382 733.343L179.928 732.502L115.482 769.719C114.717 769.467 113.91 769.368 113.107 769.428C112.303 769.489 111.52 769.707 110.801 770.071ZM-10.9321 585.329L159.966 486.679L158.513 485.838L-12.3853 584.488L-10.9321 585.329ZM-15.5212 545.42V514.29H-17.6475V545.909L-3.63544 554.001L83.695 503.521L-168.384 358.047L-169.837 358.888L80.7886 503.582L-3.63544 552.319L-15.5212 545.42ZM-21.5329 564.388L-12.8901 559.416L-26.9174 551.309V518.115L-56.7466 535.339L-41.6331 544.058L-40.1034 543.217L-53.7636 535.339L-28.906 520.975V551.768L-15.72 559.416L-21.4564 562.736L-61.8404 539.53L-63.3701 540.372L-21.5329 564.388ZM90.5021 772.656C91.7565 771.937 91.9554 770.836 91.1141 769.979L179.041 719.224L177.588 718.383L89.5997 769.138C88.0815 768.662 86.4384 768.788 85.0106 769.49C84.6776 769.6 84.3877 769.812 84.1822 770.096C83.9767 770.381 83.8661 770.722 83.8661 771.073C83.8661 771.424 83.9767 771.766 84.1822 772.05C84.3877 772.334 84.6776 772.546 85.0106 772.656C85.8627 773.084 86.8029 773.307 87.7564 773.307C88.7098 773.307 89.6501 773.084 90.5021 772.656ZM152.088 811.388L153.617 812.23L236.114 764.595V746.498L262.119 761.505L163.958 818.104L165.411 818.945L265.025 761.428L234.08 743.546V764.029L152.088 811.388ZM-48.3791 483.344L-105.177 516.141L-70.6362 536.027L-13.8538 503.246L-48.3791 483.344ZM-16.7603 503.231L-70.6362 534.391L-102.255 516.141L-48.3791 485.027L-16.7603 503.231ZM280.521 819.037L279.068 818.195L240.826 840.3L242.355 841.141L280.521 819.037ZM193.038 820.704L280.353 770.224L358.827 815.625H319.054L278.517 792.19L198.682 838.28L200.136 839.122L278.517 793.873L318.289 816.819H363.875L280.353 768.603L191.63 819.863L193.038 820.704ZM331.445 809.675L281.638 780.917L202.874 826.395L204.327 827.236L281.638 782.599L329.992 810.516L331.445 809.675ZM292.927 834.762L242.707 863.75L244.237 864.591L294.457 835.527L292.927 834.762ZM286.808 878.206L371.523 829.255H341.556L271.848 869.486L273.301 870.328L342.413 830.433H366.582L285.401 877.303L286.808 878.206ZM52.4739 504.179L0.265289 534.314V498.228L-48.3179 470.174L-130.141 517.411L-22.8026 579.379L111.719 501.716L-169.271 339.476L-170.724 340.318L108.797 501.716L-22.8026 577.773L-127.22 517.411L-48.3179 471.841L-1.79977 498.703V537.19L55.3803 504.179L-200.293 356.563L-418 482.243L-416.47 483.084L-200.232 358.23L52.4739 504.179ZM384.831 828.919L283.672 887.322L285.126 888.164L384.831 830.601L465.355 877.089L571.837 815.61L384.097 707.231L382.644 708.072L568.9 815.61L465.324 875.406L384.831 828.919ZM314.19 837.623L289.562 823.396L244.375 849.493L226.125 838.953L281.194 807.182L308.346 822.861H371.829V821.668H309.111L281.118 805.499L223.158 838.953L244.329 851.191L289.516 825.094L311.238 837.638L254.272 870.389L255.725 871.245L314.19 837.623ZM56.9253 756.426L58.455 757.268L158.895 699.277L157.442 698.435L56.9253 756.426ZM558.039 229.721L516.385 205.658L514.856 206.5L555.071 229.721L549.335 233.04L536.164 225.392H482.732L507.59 211.043L521.25 218.936L522.703 218.095L507.59 209.36L477.76 226.585H535.354L549.381 234.692L558.039 229.721ZM474.472 181.474L417.674 214.271L452.215 234.157L509.012 201.467L474.472 181.474ZM506.09 201.36L452.215 232.52L420.596 214.271L474.472 183.111L506.09 201.36ZM428.887 7.60842L221.949 127.078L252.115 144.486L459.052 25.0164L428.887 7.60842ZM456.131 25.0164L252.115 142.803L224.856 127.078L428.887 9.29109L456.131 25.0164ZM526.053 232.061H471.275V233.239H525.196L537.143 240.153L452.719 288.889L202.094 144.149L200.64 144.991L452.719 290.526L540.065 240.046L526.053 232.061ZM476.613 167.064L394.79 214.301L443.358 242.356H505.907L453.683 272.491L200.977 126.512L417.215 1.71908L415.762 0.877747L198.07 126.512L453.744 274.128L510.94 241.239H444.275L397.757 214.378L476.613 168.747L581.092 229.002L449.538 304.982L169.955 143.629L168.501 144.47L449.476 306.695L583.998 229.002L476.613 167.064ZM426.669 19.9837L243.38 125.808L254.318 132.111L437.606 26.3013L426.669 19.9837ZM434.699 26.3013L254.318 130.428L246.302 125.839L426.669 21.6663L434.699 26.3013ZM668.407 407.395C669.661 406.676 669.937 405.575 669.019 404.718L748.655 358.735V314.573L617.101 390.492L618.554 391.333L746.559 317.433V358.246L667.52 403.877C666.002 403.392 664.356 403.518 662.93 404.229C662.597 404.339 662.307 404.551 662.102 404.835C661.897 405.119 661.786 405.461 661.786 405.812C661.786 406.162 661.897 406.504 662.102 406.789C662.307 407.073 662.597 407.285 662.93 407.395C663.781 407.82 664.718 408.042 665.669 408.042C666.619 408.042 667.557 407.82 668.407 407.395ZM729.839 350.674C730.167 350.56 730.451 350.348 730.652 350.065C730.853 349.783 730.961 349.445 730.961 349.098C730.961 348.752 730.853 348.414 730.652 348.131C730.451 347.849 730.167 347.636 729.839 347.523C728.989 347.097 728.052 346.876 727.101 346.876C726.151 346.876 725.213 347.097 724.363 347.523C723.109 348.242 722.833 349.343 723.751 350.2L612.083 414.707C610.564 414.227 608.918 414.359 607.494 415.074C607.167 415.188 606.882 415.4 606.681 415.683C606.48 415.965 606.372 416.303 606.372 416.65C606.372 416.996 606.48 417.334 606.681 417.617C606.882 417.899 607.167 418.112 607.494 418.225C608.344 418.651 609.282 418.872 610.232 418.872C611.183 418.872 612.12 418.651 612.971 418.225C614.225 417.506 614.424 416.405 613.582 415.548L725.327 351.041C726.823 351.5 728.438 351.369 729.839 350.674ZM615.25 209.942L696.614 162.965L695.085 162.123L613.108 209.452V239.908L419.112 352.005L242.952 250.295V213.154L146.198 157.32L144.669 158.161L240.887 213.705V250.846L419.112 353.749L615.25 240.551V209.942ZM423.456 334.551L594.308 235.885L592.87 235.12L422.003 333.694L423.456 334.551ZM397.253 321.717L398.782 320.875L271.282 247.358V222.011L420.611 308.225L422.064 307.383L269.217 219.135V247.786L397.253 321.717ZM547.377 87.887L462.662 136.837H492.66L562.368 96.591L560.915 95.7496L491.803 135.598H467.634L548.83 88.7283L547.377 87.887ZM634.065 126.91L555.699 172.158L515.927 149.213H470.357L553.848 197.429L642.57 146.168L641.117 145.327L553.786 195.807L475.267 150.467H515.039L555.637 173.902L635.472 127.812L634.065 126.91ZM449.4 137.113L550.574 78.7088L549.044 77.8674L449.4 135.43L368.892 88.9425L262.456 150.436L450.18 258.8L451.633 257.959L265.316 150.436L368.892 90.6251L449.4 137.113ZM739.721 304.462C738.871 304.036 737.934 303.815 736.983 303.815C736.033 303.815 735.095 304.036 734.245 304.462C732.991 305.181 732.715 306.282 733.633 307.139L574.315 399.15L575.768 399.991L735.132 307.98C736.651 308.46 738.298 308.328 739.721 307.613C740.049 307.499 740.333 307.287 740.534 307.004C740.735 306.722 740.843 306.384 740.843 306.037C740.843 305.691 740.735 305.353 740.534 305.07C740.333 304.788 740.049 304.575 739.721 304.462ZM502.771 156.372L552.578 185.115L631.342 139.637L629.889 138.749L552.578 183.386L504.224 155.576L502.771 156.372ZM670.349 147.928L668.896 147.086L569.267 204.526L600.228 222.409V201.926L682.113 154.658L680.583 153.817L598.163 201.467V219.563L572.158 204.557L670.349 147.928ZM553.695 147.071L555.148 147.912L593.39 125.808L591.937 124.967L553.695 147.071ZM459.037 54.616L418.347 78.1122L451.771 97.4476L492.476 73.9514L459.037 54.616ZM489.554 73.9208L451.771 95.7343L421.253 78.0663L459.037 56.2528L489.554 73.9208ZM520.041 128.455L544.669 142.681L589.811 116.538L608.167 127.078L553.098 158.85L525.931 143.17H462.387V144.363H525.105L553.098 160.532L611.043 127.078L589.887 114.84L544.669 140.952L522.963 128.409L579.929 95.6578L578.399 94.8165L520.041 128.455ZM461.209 42.3785L397.176 79.3207L449.614 109.593L513.632 72.6206L461.209 42.3785ZM510.725 72.6206L449.614 107.911L400.128 79.3207L461.316 44.0305L510.725 72.6206ZM541.319 131.33L591.539 102.266L590.086 101.425L539.836 130.489L541.319 131.33ZM463.779 27.7545L371.905 80.8045L447.029 124.187L538.918 71.1368L463.779 27.7545ZM535.996 71.1368L447.029 122.504L374.812 80.8045L463.779 29.4372L535.996 71.1368ZM720.738 296.63C719.483 297.364 719.208 298.465 720.126 299.307L560.747 391.318L562.2 392.159L721.564 300.148C723.081 300.632 724.727 300.506 726.153 299.796C726.486 299.686 726.776 299.474 726.981 299.19C727.187 298.905 727.297 298.564 727.297 298.213C727.297 297.862 727.187 297.52 726.981 297.236C726.776 296.952 726.486 296.74 726.153 296.63C725.311 296.214 724.384 295.998 723.445 295.998C722.506 295.998 721.58 296.214 720.738 296.63ZM222.286 418.225C223.136 418.651 224.073 418.872 225.024 418.872C225.974 418.872 226.912 418.651 227.762 418.225C228.09 418.112 228.374 417.899 228.575 417.617C228.776 417.334 228.884 416.996 228.884 416.65C228.884 416.303 228.776 415.965 228.575 415.683C228.374 415.4 228.09 415.188 227.762 415.074C226.338 414.359 224.692 414.227 223.173 414.707L111.505 350.2C112.331 349.343 112.132 348.242 110.878 347.523C110.028 347.097 109.09 346.876 108.14 346.876C107.189 346.876 106.252 347.097 105.401 347.523C105.068 347.633 104.779 347.845 104.573 348.129C104.368 348.413 104.257 348.755 104.257 349.106C104.257 349.457 104.368 349.798 104.573 350.083C104.779 350.367 105.068 350.579 105.401 350.689C106.829 351.391 108.472 351.517 109.991 351.041L221.658 415.625C220.832 416.405 221.016 417.506 222.286 418.225ZM260.819 399.15L101.455 307.139C102.281 306.282 102.097 305.181 100.828 304.462C99.9775 304.036 99.04 303.815 98.0895 303.815C97.1389 303.815 96.2014 304.036 95.3513 304.462C95.0237 304.575 94.7397 304.788 94.5386 305.07C94.3375 305.353 94.2296 305.691 94.2296 306.037C94.2296 306.384 94.3375 306.722 94.5386 307.004C94.7397 307.287 95.0237 307.499 95.3513 307.613C96.7749 308.328 98.4213 308.46 99.9404 307.98L259.396 399.991L260.819 399.15ZM708.699 673.823L577.145 597.888L575.692 598.73L703.727 672.614H633.055L554.016 626.998C554.857 626.142 554.658 625.056 553.404 624.321C552.554 623.896 551.616 623.675 550.666 623.675C549.715 623.675 548.778 623.896 547.928 624.321C547.595 624.431 547.305 624.644 547.099 624.928C546.894 625.212 546.783 625.554 546.783 625.905C546.783 626.255 546.894 626.597 547.099 626.881C547.305 627.166 547.595 627.378 547.928 627.488C549.353 628.198 551 628.324 552.517 627.84L632.153 673.823H708.699ZM15.9906 257.745C16.8166 256.888 16.6331 255.802 15.3634 255.068C14.5133 254.642 13.5758 254.421 12.6253 254.421C11.6747 254.421 10.7372 254.642 9.88708 255.068C9.56122 255.185 9.27948 255.4 9.08032 255.683C8.88116 255.967 8.77426 256.305 8.77426 256.651C8.77426 256.997 8.88116 257.335 9.08032 257.619C9.27948 257.902 9.56122 258.117 9.88708 258.234C11.3127 258.944 12.959 259.07 14.4762 258.586L77.0562 294.779V309.188L21.4669 277.065L20.0137 277.906L79.1212 312.034V294.243L15.9906 257.745ZM574.33 566.132L733.603 658.189C732.776 659.046 732.975 660.132 734.23 660.866C735.08 661.291 736.017 661.513 736.968 661.513C737.918 661.513 738.856 661.291 739.706 660.866C740.039 660.756 740.329 660.544 740.534 660.259C740.74 659.975 740.85 659.633 740.85 659.283C740.85 658.932 740.74 658.59 740.534 658.306C740.329 658.022 740.039 657.81 739.706 657.699C738.28 656.989 736.634 656.863 735.117 657.348L575.768 565.336L574.33 566.132ZM-14.4198 284.897C-13.5784 284.04 -13.7773 282.939 -15.0317 282.22C-15.8818 281.794 -16.8192 281.573 -17.7698 281.573C-18.7204 281.573 -19.6579 281.794 -20.508 282.22C-20.8356 282.333 -21.1196 282.546 -21.3207 282.828C-21.5218 283.111 -21.6298 283.449 -21.6298 283.795C-21.6298 284.142 -21.5218 284.48 -21.3207 284.762C-21.1196 285.045 -20.8356 285.258 -20.508 285.371C-19.0844 286.086 -17.438 286.218 -15.9189 285.738L55.518 326.902V353.045L-68.6782 281.409L-70.2079 282.25L57.5678 355.967V326.474L-14.4198 284.897ZM28.0905 250.815L91.2212 287.268H121.999L62.8911 253.125L61.4379 253.966L117.027 286.09H92.0625L29.5437 249.989C30.3698 249.132 30.1709 248.031 28.9165 247.312C28.0665 246.887 27.1289 246.665 26.1784 246.665C25.2278 246.665 24.2903 246.887 23.4402 247.312C23.1127 247.426 22.8286 247.638 22.6275 247.921C22.4265 248.203 22.3184 248.541 22.3184 248.888C22.3184 249.234 22.4265 249.572 22.6275 249.855C22.8286 250.137 23.1127 250.35 23.4402 250.463C24.8788 251.186 26.5441 251.312 28.0752 250.815H28.0905ZM-81.084 309.066L-16.6378 346.268L-15.1082 345.427L-79.6308 308.225C-78.7895 307.368 -78.9883 306.282 -80.2427 305.548C-81.0928 305.122 -82.0303 304.901 -82.9808 304.901C-83.9314 304.901 -84.8689 305.122 -85.719 305.548C-86.0521 305.658 -86.3419 305.87 -86.5474 306.154C-86.7528 306.438 -86.8634 306.78 -86.8634 307.131C-86.8634 307.482 -86.7528 307.823 -86.5474 308.108C-86.3419 308.392 -86.0521 308.604 -85.719 308.714C-84.2805 309.437 -82.6152 309.563 -81.084 309.066ZM-56.6089 274.449L-58.1386 275.29L42.3014 333.281L43.7546 332.44L-56.6089 274.449ZM86.5403 314.573V358.735L166.085 404.718C165.243 405.575 165.442 406.676 166.696 407.395C167.547 407.82 168.484 408.042 169.435 408.042C170.385 408.042 171.323 407.82 172.173 407.395C172.506 407.285 172.796 407.073 173.001 406.789C173.207 406.504 173.317 406.162 173.317 405.812C173.317 405.461 173.207 405.119 173.001 404.835C172.796 404.551 172.506 404.339 172.173 404.229C170.747 403.518 169.101 403.392 167.584 403.877L88.5442 358.246V317.449L216.565 391.348L218.018 390.507L86.5403 314.573ZM534.742 592.244C533.892 591.818 532.954 591.597 532.004 591.597C531.053 591.597 530.115 591.818 529.265 592.244C528.932 592.354 528.643 592.566 528.437 592.85C528.232 593.134 528.121 593.476 528.121 593.827C528.121 594.178 528.232 594.519 528.437 594.804C528.643 595.088 528.932 595.3 529.265 595.41C530.691 596.12 532.337 596.246 533.854 595.762L645.522 660.285C644.681 661.126 644.88 662.227 646.134 662.962C646.984 663.387 647.922 663.608 648.873 663.608C649.823 663.608 650.761 663.387 651.611 662.962C651.944 662.852 652.234 662.639 652.439 662.355C652.645 662.071 652.755 661.729 652.755 661.378C652.755 661.028 652.645 660.686 652.439 660.402C652.234 660.117 651.944 659.905 651.611 659.795C650.185 659.085 648.539 658.959 647.022 659.443L535.277 594.921C536.088 594.064 535.889 592.978 534.635 592.244H534.742ZM300.484 373.084C301.334 373.509 302.271 373.731 303.222 373.731C304.172 373.731 305.11 373.509 305.96 373.084C306.293 372.974 306.583 372.762 306.789 372.477C306.994 372.193 307.105 371.851 307.105 371.501C307.105 371.15 306.994 370.808 306.789 370.524C306.583 370.24 306.293 370.027 305.96 369.917C304.537 369.202 302.89 369.071 301.371 369.55L189.627 305.043C190.468 304.186 190.269 303.085 189.015 302.366C188.165 301.941 187.227 301.719 186.277 301.719C185.326 301.719 184.388 301.941 183.538 302.366C183.205 302.476 182.916 302.688 182.71 302.972C182.505 303.257 182.394 303.598 182.394 303.949C182.394 304.3 182.505 304.642 182.71 304.926C182.916 305.21 183.205 305.422 183.538 305.532C184.964 306.242 186.61 306.369 188.128 305.884L299.795 370.392C299.031 371.264 299.168 372.35 300.484 373.084ZM99.145 184.518L97.6153 185.359L179.821 232.78L181.274 231.939L99.145 184.518ZM102.051 203.333L177.588 246.945L179.041 246.104L103.505 202.492C104.346 201.635 104.147 200.549 102.893 199.815C102.043 199.39 101.105 199.168 100.155 199.168C99.204 199.168 98.2665 199.39 97.4164 199.815C97.0834 199.925 96.7935 200.137 96.5881 200.421C96.3826 200.706 96.272 201.048 96.272 201.398C96.272 201.749 96.3826 202.091 96.5881 202.375C96.7935 202.659 97.0834 202.871 97.4164 202.981C98.855 203.704 100.52 203.83 102.051 203.333ZM529.158 369.917C528.831 370.031 528.547 370.244 528.346 370.526C528.145 370.808 528.037 371.146 528.037 371.493C528.037 371.84 528.145 372.178 528.346 372.46C528.547 372.742 528.831 372.955 529.158 373.069C530.005 373.506 530.944 373.734 531.897 373.734C532.849 373.734 533.788 373.506 534.635 373.069C535.889 372.35 536.088 371.248 535.247 370.392L646.991 305.884C648.51 306.356 650.151 306.23 651.58 305.532C651.906 305.415 652.188 305.2 652.387 304.917C652.586 304.633 652.693 304.296 652.693 303.949C652.693 303.603 652.586 303.265 652.387 302.982C652.188 302.698 651.906 302.483 651.58 302.366C650.728 301.938 649.788 301.715 648.834 301.715C647.881 301.715 646.941 301.938 646.089 302.366C644.834 303.085 644.559 304.186 645.477 305.043L533.809 369.55C532.271 369.054 530.599 369.186 529.158 369.917ZM552.563 337.473C551.044 336.993 549.397 337.125 547.974 337.84C547.646 337.953 547.362 338.166 547.161 338.448C546.96 338.731 546.852 339.069 546.852 339.415C546.852 339.762 546.96 340.1 547.161 340.382C547.362 340.665 547.646 340.877 547.974 340.991C548.824 341.416 549.761 341.638 550.712 341.638C551.662 341.638 552.6 341.416 553.45 340.991C554.704 340.272 554.903 339.17 554.062 338.314L633.101 292.683H703.773L575.738 366.583L577.191 367.424L708.745 291.505H632.26L552.563 337.473ZM58.3785 208.045L56.8488 208.886L157.289 266.877L158.742 266.036L58.3785 208.045ZM75.0216 233.254L147.024 274.893H198.208L70.509 201.161L69.0558 202.002L193.237 273.715H147.881L76.4749 232.413C77.3162 231.556 77.1173 230.455 75.863 229.736C75.0165 229.299 74.0776 229.07 73.1248 229.07C72.172 229.07 71.2332 229.299 70.3867 229.736C70.0591 229.849 69.775 230.062 69.5739 230.344C69.3729 230.627 69.2648 230.965 69.2648 231.311C69.2648 231.658 69.3729 231.996 69.5739 232.279C69.775 232.561 70.0591 232.774 70.3867 232.887C71.8232 233.615 73.4885 233.746 75.0216 233.254ZM612.848 547.087C611.998 546.662 611.061 546.44 610.11 546.44C609.159 546.44 608.222 546.662 607.372 547.087C607.039 547.197 606.749 547.409 606.543 547.693C606.338 547.978 606.227 548.32 606.227 548.67C606.227 549.021 606.338 549.363 606.543 549.647C606.749 549.931 607.039 550.143 607.372 550.254C608.797 550.964 610.444 551.09 611.961 550.605L723.629 615.128C722.787 615.969 722.986 617.071 724.241 617.805C725.091 618.23 726.028 618.452 726.979 618.452C727.929 618.452 728.867 618.23 729.717 617.805C730.05 617.695 730.34 617.483 730.545 617.198C730.751 616.914 730.861 616.572 730.861 616.222C730.861 615.871 730.751 615.529 730.545 615.245C730.34 614.961 730.05 614.748 729.717 614.638C728.292 613.928 726.645 613.802 725.128 614.287L613.384 549.764C614.286 548.923 614.103 547.821 612.848 547.087ZM-34.9789 398.798H8.81635L136.255 472.361L137.709 471.52L9.67297 397.605H-39.9505L112.897 485.853L114.427 485.012L-34.9789 398.798ZM748.655 650.739V606.577L669.019 560.61C669.86 559.753 669.661 558.652 668.407 557.917C667.557 557.492 666.619 557.27 665.669 557.27C664.718 557.27 663.781 557.492 662.93 557.917C662.597 558.027 662.307 558.24 662.102 558.524C661.897 558.808 661.786 559.15 661.786 559.5C661.786 559.851 661.897 560.193 662.102 560.477C662.307 560.762 662.597 560.974 662.93 561.084C664.354 561.799 666 561.931 667.52 561.451L746.559 607.082V647.879L618.554 573.979L617.101 574.82L748.655 650.739ZM330.313 352.815C329.487 353.672 329.67 354.773 330.94 355.492C331.79 355.918 332.728 356.139 333.678 356.139C334.629 356.139 335.566 355.918 336.416 355.492C336.744 355.379 337.028 355.166 337.229 354.884C337.43 354.601 337.538 354.263 337.538 353.917C337.538 353.57 337.43 353.232 337.229 352.95C337.028 352.667 336.744 352.455 336.416 352.341C334.993 351.626 333.346 351.494 331.827 351.974L213.23 283.505H139.85L33.7657 222.317L32.236 223.158L138.917 284.759H212.251L330.313 352.815ZM126.419 291.505L257.974 367.424L259.503 366.583L131.498 292.683H202.17L281.21 338.314C280.384 339.17 280.567 340.272 281.837 340.991C282.683 341.428 283.622 341.656 284.575 341.656C285.528 341.656 286.467 341.428 287.313 340.991C287.641 340.877 287.925 340.665 288.126 340.382C288.327 340.1 288.435 339.762 288.435 339.415C288.435 339.069 288.327 338.731 288.126 338.448C287.925 338.166 287.641 337.953 287.313 337.84C285.89 337.125 284.243 336.993 282.724 337.473L203.088 291.582L126.419 291.505ZM1035.82 583.31L1219.11 477.486L1208.18 471.183L1024.89 576.993L1035.82 583.31ZM1027.79 576.993L1208.18 472.866L1216.19 477.455L1035.82 581.628L1027.79 576.993ZM904.806 378.484L987.303 330.849L985.773 330.008L903.873 377.291H868.507L899.452 395.157L999.066 337.61L997.613 336.769L899.452 393.368L873.447 378.377L904.806 378.484ZM684.01 537.572C684.851 536.716 684.652 535.614 683.398 534.895C682.548 534.47 681.61 534.248 680.66 534.248C679.709 534.248 678.771 534.47 677.922 534.895C677.594 535.009 677.31 535.221 677.109 535.504C676.908 535.786 676.8 536.124 676.8 536.471C676.8 536.818 676.908 537.156 677.109 537.438C677.31 537.72 677.594 537.933 677.922 538.047C679.345 538.762 680.991 538.893 682.51 538.414L811.617 613.032H865.156L945.848 659.612L947.378 658.77L866.09 611.854H812.55L684.01 537.572ZM644.023 481.861L838.081 369.81H890.825L972.801 322.481L971.272 321.64L889.892 368.617H837.224L641.102 481.815L819.266 584.763H883.666L979.761 640.246L981.291 639.404L884.584 583.57H820.183L644.023 481.861ZM846.601 381.543L845.072 380.702L674.281 479.352L675.81 480.193L846.601 381.543ZM995.257 452.338V426.027L955.485 403.081L1033.85 357.833L1032.4 356.991L952.563 403.081L993.162 426.516V449.462L914.642 404.121L1001.96 353.641L1000.43 352.8L911.705 404.06L995.257 452.338ZM805.498 463.963L993.208 572.342L1099.69 510.848L1019.18 464.376L1118.89 406.798L1117.36 405.957L1016.18 464.376L1096.71 510.848L993.131 570.66L806.875 463.122L805.498 463.963ZM1027.73 412.168L1077.95 383.103L1076.42 382.262L1026.2 411.326L1027.73 412.168ZM776.862 757.268L778.316 756.426L677.876 698.435L676.346 699.277L776.862 757.268ZM1088.03 389.008L1031.3 421.897L1009.59 409.368L1054.84 383.272L1033.67 371.034L975.723 404.489L1003.73 420.658V456.927H1005.8V420.214L978.645 404.534L1033.71 372.763L1051.98 383.302L1006.78 409.399L1031.4 423.61L1089.53 389.88L1088.03 389.008ZM984.335 432.712L935.997 404.81L1013.31 360.173L1011.78 359.332L932.999 404.81L982.943 433.553L984.335 432.712ZM1087.94 399.991L1086.49 399.15L1016.78 439.396V456.712L1101.49 407.762L1099.97 406.921L1018.85 453.867V439.916L1087.94 399.991ZM191.738 224.214V255.114L320.875 329.671C320.033 330.512 320.232 331.614 321.487 332.348C322.337 332.773 323.274 332.995 324.225 332.995C325.175 332.995 326.113 332.773 326.963 332.348C327.296 332.238 327.586 332.026 327.791 331.742C327.997 331.457 328.107 331.116 328.107 330.765C328.107 330.414 327.997 330.072 327.791 329.788C327.586 329.504 327.296 329.292 326.963 329.182C325.537 328.471 323.891 328.345 322.374 328.83L193.879 254.624V223.724L112.545 176.793L111.092 177.634L191.738 224.214ZM807.028 714.513L743.897 678.06H713.135L772.243 712.187L773.772 711.346L718.183 679.222H743.132L805.667 715.323C804.825 716.18 805.024 717.266 806.278 718C807.129 718.426 808.066 718.647 809.017 718.647C809.967 718.647 810.905 718.426 811.755 718C812.088 717.89 812.378 717.678 812.583 717.394C812.789 717.109 812.899 716.768 812.899 716.417C812.899 716.066 812.789 715.724 812.583 715.44C812.378 715.156 812.088 714.944 811.755 714.834C811.028 714.469 810.235 714.252 809.424 714.197C808.612 714.142 807.798 714.249 807.028 714.513ZM113.539 300.148L272.903 392.159L274.357 391.318L114.993 299.368C115.834 298.526 115.635 297.425 114.381 296.691C113.531 296.265 112.593 296.044 111.643 296.044C110.692 296.044 109.755 296.265 108.904 296.691C108.571 296.801 108.282 297.013 108.076 297.297C107.871 297.581 107.76 297.923 107.76 298.274C107.76 298.625 107.871 298.967 108.076 299.251C108.282 299.535 108.571 299.747 108.904 299.857C110.351 300.559 112.016 300.664 113.539 300.148ZM721.579 665.164L562.276 573.184L560.823 574.025L720.187 666.036C719.346 666.893 719.545 667.994 720.799 668.713C721.649 669.139 722.586 669.36 723.537 669.36C724.488 669.36 725.425 669.139 726.275 668.713C726.608 668.603 726.898 668.391 727.104 668.107C727.309 667.823 727.42 667.481 727.42 667.13C727.42 666.779 727.309 666.438 727.104 666.153C726.898 665.869 726.608 665.657 726.275 665.547C725.557 665.176 724.771 664.951 723.965 664.885C723.159 664.82 722.348 664.915 721.579 665.164ZM760.097 732.073L688.094 690.496H636.987L764.701 764.228L766.155 763.386L641.958 691.689H687.237L758.644 732.915C757.818 733.771 758.001 734.873 759.271 735.592C760.121 736.017 761.058 736.239 762.009 736.239C762.96 736.239 763.897 736.017 764.747 735.592C765.08 735.482 765.37 735.269 765.575 734.985C765.781 734.701 765.892 734.359 765.892 734.008C765.892 733.658 765.781 733.316 765.575 733.032C765.37 732.747 765.08 732.535 764.747 732.425C763.304 731.699 761.633 731.572 760.097 732.073ZM504.806 612.497C505.647 611.64 505.448 610.554 504.194 609.82C503.344 609.395 502.406 609.173 501.456 609.173C500.505 609.173 499.568 609.395 498.717 609.82C498.384 609.93 498.094 610.142 497.889 610.426C497.684 610.711 497.573 611.052 497.573 611.403C497.573 611.754 497.684 612.096 497.889 612.38C498.094 612.664 498.384 612.876 498.717 612.986C500.143 613.696 501.789 613.823 503.307 613.338L621.935 681.792H695.268L801.353 742.98L802.882 742.139L696.125 680.614H622.791L504.806 612.497ZM819.128 707.522C818.302 708.378 818.501 709.48 819.755 710.199C820.602 710.636 821.54 710.864 822.493 710.864C823.446 710.864 824.385 710.636 825.231 710.199C825.559 710.085 825.843 709.873 826.044 709.59C826.245 709.308 826.353 708.97 826.353 708.623C826.353 708.276 826.245 707.938 826.044 707.656C825.843 707.374 825.559 707.161 825.231 707.048C823.808 706.332 822.161 706.201 820.642 706.68L758.078 670.58V656.185L813.667 688.309L815.197 687.467L756.074 653.34V671.084L819.128 707.522ZM915.208 671.084L827.297 620.314L825.767 621.155L913.694 671.926C912.868 672.782 913.051 673.868 914.321 674.603C915.171 675.028 916.109 675.25 917.059 675.25C918.01 675.25 918.947 675.028 919.797 674.603C920.123 674.485 920.405 674.27 920.604 673.987C920.803 673.704 920.91 673.366 920.91 673.019C920.91 672.673 920.803 672.335 920.604 672.052C920.405 671.768 920.123 671.553 919.797 671.436C918.372 670.726 916.725 670.6 915.208 671.084ZM637.813 529.511C637.48 529.621 637.19 529.833 636.984 530.117C636.779 530.401 636.668 530.743 636.668 531.094C636.668 531.445 636.779 531.787 636.984 532.071C637.19 532.355 637.48 532.567 637.813 532.677C639.238 533.387 640.885 533.514 642.402 533.029L760.388 601.147V643.55L867.084 705.151L868.614 704.309L762.529 643.121V600.718L643.901 532.188C644.742 531.331 644.543 530.245 643.289 529.511C642.439 529.085 641.501 528.864 640.551 528.864C639.6 528.864 638.663 529.085 637.813 529.511ZM849.554 680.431C848.728 681.287 848.911 682.373 850.181 683.108C851.031 683.533 851.968 683.755 852.919 683.755C853.87 683.755 854.807 683.533 855.657 683.108C855.99 682.998 856.28 682.786 856.485 682.501C856.691 682.217 856.802 681.875 856.802 681.525C856.802 681.174 856.691 680.832 856.485 680.548C856.28 680.263 855.99 680.051 855.657 679.941C854.231 679.231 852.585 679.105 851.068 679.589L779.677 638.364V612.222L903.858 683.919L905.388 683.077L777.688 609.346V638.854L849.554 680.431ZM916.203 656.246L851.772 619.075L850.242 619.916L914.688 657.118C913.847 657.975 914.046 659.076 915.3 659.795C916.152 660.223 917.092 660.446 918.046 660.446C918.999 660.446 919.94 660.223 920.792 659.795C921.119 659.682 921.403 659.469 921.604 659.187C921.805 658.904 921.913 658.566 921.913 658.22C921.913 657.873 921.805 657.535 921.604 657.253C921.403 656.97 921.119 656.757 920.792 656.644C919.372 655.919 917.726 655.776 916.203 656.246ZM891.727 690.879L893.257 690.037L792.802 632.046L791.349 632.888L891.727 690.879ZM997.644 403.295L999.173 404.137L1037.42 382.033L1035.89 381.191L997.644 403.295ZM772.243 253.125L713.135 287.253H743.913L807.028 250.815C808.547 251.295 810.193 251.163 811.617 250.448C811.945 250.335 812.229 250.122 812.43 249.839C812.631 249.557 812.739 249.219 812.739 248.872C812.739 248.526 812.631 248.188 812.43 247.905C812.229 247.623 811.945 247.41 811.617 247.297C810.767 246.871 809.83 246.65 808.879 246.65C807.928 246.65 806.991 246.871 806.141 247.297C804.886 248.016 804.611 249.117 805.529 249.974L742.995 286.075H718.107L773.696 253.951L772.243 253.125ZM869.18 567.218H825.384L697.961 493.639L696.431 494.481L824.467 568.396H874.09L721.365 480.147L719.835 480.989L869.18 567.218ZM792.695 333.281L893.15 275.29L891.62 274.449L791.18 332.44L792.695 333.281ZM760.388 364.166L642.387 432.283C640.867 431.803 639.221 431.935 637.797 432.65C637.47 432.764 637.186 432.976 636.985 433.259C636.784 433.541 636.676 433.879 636.676 434.226C636.676 434.573 636.784 434.911 636.985 435.193C637.186 435.475 637.47 435.688 637.797 435.801C638.648 436.227 639.585 436.448 640.536 436.448C641.486 436.448 642.424 436.227 643.274 435.801C644.528 435.083 644.727 433.981 643.886 433.125L762.483 364.655V322.313L868.568 261.125L867.038 260.284L760.357 321.87L760.388 364.166ZM621.935 283.505L503.337 351.974C501.818 351.494 500.172 351.626 498.748 352.341C498.42 352.455 498.136 352.667 497.935 352.95C497.734 353.232 497.626 353.57 497.626 353.917C497.626 354.263 497.734 354.601 497.935 354.884C498.136 355.166 498.42 355.379 498.748 355.492C499.598 355.918 500.536 356.139 501.486 356.139C502.437 356.139 503.374 355.918 504.224 355.492C505.479 354.773 505.754 353.672 504.836 352.815L622.822 284.698H696.125L802.821 223.097L801.292 222.256L695.192 283.444L621.935 283.505ZM724.317 195.256C724.65 195.146 724.94 194.934 725.146 194.65C725.351 194.366 725.462 194.024 725.462 193.673C725.462 193.322 725.351 192.981 725.146 192.696C724.94 192.412 724.65 192.2 724.317 192.09C723.467 191.665 722.53 191.443 721.579 191.443C720.629 191.443 719.691 191.665 718.841 192.09C717.571 192.809 717.311 193.91 718.214 194.767L653.768 231.969L655.297 232.811L719.743 195.608C721.262 196.085 722.905 195.959 724.333 195.256H724.317ZM641.316 223.724V254.624L512.821 328.83C511.304 328.345 509.658 328.471 508.232 329.182C507.899 329.292 507.609 329.504 507.404 329.788C507.198 330.072 507.088 330.414 507.088 330.765C507.088 331.116 507.198 331.457 507.404 331.742C507.609 332.026 507.899 332.238 508.232 332.348C509.082 332.773 510.02 332.995 510.97 332.995C511.921 332.995 512.858 332.773 513.708 332.348C514.978 331.614 515.162 330.512 514.336 329.671L643.35 255.114V224.214L724.027 177.634L722.497 176.793L641.316 223.724ZM779.616 326.902L851.022 285.677C852.541 286.157 854.188 286.025 855.611 285.31C855.939 285.196 856.223 284.984 856.424 284.701C856.625 284.419 856.733 284.081 856.733 283.734C856.733 283.388 856.625 283.05 856.424 282.767C856.223 282.485 855.939 282.272 855.611 282.159C854.761 281.733 853.824 281.512 852.873 281.512C851.922 281.512 850.985 281.733 850.135 282.159C848.865 282.878 848.605 283.979 849.508 284.836L777.505 326.397V355.967L905.204 282.235L903.674 281.394L779.493 353.106L779.616 326.902ZM657.531 246.884L745.458 196.113C746.975 196.598 748.621 196.471 750.047 195.761C750.38 195.651 750.67 195.439 750.875 195.155C751.081 194.871 751.191 194.529 751.191 194.178C751.191 193.827 751.081 193.486 750.875 193.201C750.67 192.917 750.38 192.705 750.047 192.595C749.197 192.169 748.259 191.948 747.309 191.948C746.358 191.948 745.421 192.169 744.57 192.595C743.316 193.329 743.041 194.43 743.959 195.272L656.031 246.042L657.531 246.884ZM688.125 274.755L760.143 233.193C761.662 233.673 763.308 233.541 764.732 232.826C765.065 232.716 765.355 232.504 765.56 232.219C765.766 231.935 765.876 231.593 765.876 231.243C765.876 230.892 765.766 230.55 765.56 230.266C765.355 229.982 765.065 229.769 764.732 229.659C763.882 229.234 762.944 229.013 761.994 229.013C761.043 229.013 760.106 229.234 759.256 229.659C758.001 230.394 757.802 231.495 758.628 232.352L687.237 273.654H641.958L766.155 201.941L764.701 201.1L636.987 274.893L688.125 274.755ZM677.784 266.816L778.239 208.825L776.709 207.984L676.269 265.974L677.784 266.816ZM815.151 277.814L813.698 276.988L758.093 309.112V294.779L820.627 258.678C822.144 259.162 823.791 259.036 825.216 258.326C825.549 258.216 825.839 258.004 826.044 257.719C826.25 257.435 826.36 257.093 826.36 256.743C826.36 256.392 826.25 256.05 826.044 255.766C825.839 255.482 825.549 255.269 825.216 255.159C824.366 254.734 823.428 254.513 822.478 254.513C821.527 254.513 820.59 254.734 819.74 255.159C818.485 255.894 818.21 256.98 819.128 257.836L755.982 294.289V312.064L815.151 277.814ZM781.742 461.852L833.951 431.717V467.818L882.519 495.873L964.342 448.62L857.019 386.652L722.497 464.33L1003.49 626.555L1005.02 625.714L725.403 464.33L856.957 388.335L961.375 448.62L882.457 494.19L836.092 467.329V428.841L778.897 461.852L1034.59 609.483L1252.17 483.788L1250.72 482.947L1034.51 607.801L781.742 461.852ZM882.595 482.687L939.377 449.89L904.852 430.004L848.054 462.801L882.595 482.687ZM850.976 462.801L904.929 431.641L936.547 449.89L882.595 481.004L850.976 462.801ZM855.825 401.689L847.167 406.691L861.21 414.799V448.024L891.039 430.815L875.864 422.034L874.335 422.876L888.102 430.769L863.244 445.117V414.248L850.058 406.6L855.825 403.387L896.041 426.623L897.571 425.782L855.825 401.689ZM849.859 420.612V451.741H851.925V420.122L837.913 412.03L750.567 462.51L1002.66 608.046L1004.11 607.204L753.489 462.449L837.913 413.713L849.859 420.612ZM1033.61 595.686L1240.54 476.216L1210.38 458.808L1003.44 578.278L1033.61 595.686ZM1006.36 578.278L1210.38 460.491L1237.64 476.216L1033.61 594.003L1006.36 578.278ZM907.468 300.989C907.801 300.879 908.091 300.667 908.296 300.383C908.502 300.099 908.612 299.757 908.612 299.406C908.612 299.055 908.502 298.713 908.296 298.429C908.091 298.145 907.801 297.933 907.468 297.823C906.618 297.397 905.68 297.176 904.73 297.176C903.779 297.176 902.842 297.397 901.992 297.823C900.737 298.557 900.462 299.643 901.364 300.5L825.828 344.111L827.358 344.953L902.894 301.341C904.407 301.821 906.047 301.695 907.468 300.989ZM851.772 346.268L933.962 298.848L932.433 298.006L850.227 345.427L851.772 346.268ZM811.617 352.28L682.495 426.837C680.978 426.353 679.332 426.479 677.906 427.189C677.573 427.299 677.283 427.512 677.078 427.796C676.872 428.08 676.762 428.422 676.762 428.773C676.762 429.123 676.872 429.465 677.078 429.749C677.283 430.034 677.573 430.246 677.906 430.356C678.756 430.781 679.694 431.003 680.644 431.003C681.595 431.003 682.532 430.781 683.382 430.356C684.637 429.622 684.912 428.535 683.994 427.679L812.489 353.473H866.028L947.317 306.542L945.787 305.701L865.156 352.28H811.617ZM1118.43 482.304L1159.13 458.808L1125.71 439.503L1085.07 463.045L1118.43 482.304ZM1087.83 463L1125.63 441.186L1156.23 458.808L1118.43 480.622L1087.83 463ZM1113.61 509.12L1205.5 456.07L1130.38 412.688L1038.62 465.738L1113.61 509.12ZM1041.53 465.738L1130.51 414.37L1202.73 456.07L1113.75 507.407L1041.53 465.738ZM1116.33 494.527L1180.37 457.554L1127.93 427.281L1063.89 464.254L1116.33 494.527ZM1066.82 464.254L1127.93 428.964L1177.44 457.554L1116.33 492.844L1066.82 464.254ZM436.948 644.33L435.495 645.171L562.934 718.75V744.02L413.605 657.807L412.152 658.648L564.999 746.896V718.245L436.948 644.33ZM151.721 534.941C150.466 535.66 150.191 536.762 151.109 537.618L22.6142 611.824H-30.9252L-112.213 658.847L-110.684 659.673L-30.0074 613.094H23.532L152.654 538.551C154.173 539.031 155.819 538.899 157.243 538.184C157.57 538.071 157.855 537.858 158.056 537.576C158.257 537.293 158.365 536.955 158.365 536.609C158.365 536.262 158.257 535.924 158.056 535.641C157.855 535.359 157.57 535.146 157.243 535.033C156.394 534.586 155.452 534.345 154.493 534.329C153.533 534.313 152.584 534.523 151.721 534.941ZM-197.05 544.119L-175.344 556.648L-220.531 582.744L-199.376 594.982L-141.385 561.527L-169.455 545.358V509.151H-171.52V545.863L-144.368 561.543L-199.437 593.315L-217.686 582.775L-172.453 556.663L-197.096 542.452L-255.225 576.105L-253.695 576.947L-197.05 544.119ZM-68.6476 683.903L55.5486 612.206V638.349L-15.9495 679.589C-17.4667 679.105 -19.1129 679.231 -20.5386 679.941C-20.8716 680.051 -21.1615 680.263 -21.3669 680.548C-21.5724 680.832 -21.683 681.174 -21.683 681.525C-21.683 681.875 -21.5724 682.217 -21.3669 682.501C-21.1615 682.786 -20.8716 682.998 -20.5386 683.108C-19.6885 683.533 -18.751 683.755 -17.8004 683.755C-16.8499 683.755 -15.9124 683.533 -15.0623 683.108C-13.8079 682.373 -13.5326 681.287 -14.4504 680.431L57.5525 638.854V609.346L-70.1467 683.077L-68.6476 683.903ZM-253.741 566.025L-252.211 566.866L-182.503 526.62V509.319L-267.218 558.269L-265.688 559.11L-184.492 512.241V526.191L-253.741 566.025ZM-56.6242 690.879L43.8158 632.842L42.3626 632.001L-58.0774 690.037L-56.6242 690.879ZM-72.3495 664.338C-72.6753 664.456 -72.9571 664.671 -73.1562 664.954C-73.3554 665.237 -73.4623 665.575 -73.4623 665.922C-73.4623 666.268 -73.3554 666.606 -73.1562 666.889C-72.9571 667.173 -72.6753 667.388 -72.3495 667.505C-71.4994 667.93 -70.5619 668.152 -69.6113 668.152C-68.6607 668.152 -67.7232 667.93 -66.8731 667.505C-65.6035 666.771 -65.4199 665.669 -66.246 664.813L9.29053 621.216L7.76083 620.375L-67.7757 663.971C-69.2902 663.496 -70.9302 663.627 -72.3495 664.338ZM-163.443 562.721L-164.973 561.879L-203.215 583.968L-201.685 584.809L-163.443 562.721ZM-161.057 513.77V540.081L-121.284 563.026L-199.651 608.275L-198.198 609.116L-118.439 563.026L-158.992 539.53V516.585L-80.4722 561.925L-167.803 612.405L-166.273 613.246L-77.5504 561.986L-161.057 513.77ZM-262.521 455.183L-158.946 395.372L27.3103 502.909L28.84 502.068L-158.946 393.689L-265.443 455.183L-184.92 501.67L-284.641 559.233L-283.111 560.074L-181.952 501.67L-262.521 455.183ZM-34.3059 588.741L-65.2364 570.874L-164.866 628.39L-163.336 629.232L-65.1599 572.557L-39.155 587.548H-70.6056L-153.102 635.182L-151.573 636.024L-69.6878 588.741H-34.3059ZM-193.394 553.879L-243.63 582.867L-242.1 583.708L-191.88 554.72L-193.394 553.879ZM-150.135 533.32L-101.781 561.221L-179.092 605.858L-177.562 606.699L-98.7979 561.221L-148.666 532.478L-150.135 533.32ZM282.556 627.84C284.073 628.324 285.719 628.198 287.145 627.488C287.471 627.371 287.753 627.156 287.952 626.872C288.151 626.589 288.258 626.251 288.258 625.905C288.258 625.558 288.151 625.22 287.952 624.937C287.753 624.654 287.471 624.439 287.145 624.321C286.293 623.894 285.352 623.671 284.399 623.671C283.446 623.671 282.505 623.894 281.653 624.321C280.399 625.056 280.2 626.142 281.041 626.998L202.063 672.614H131.391L259.396 598.73L257.866 597.888L126.312 673.823H202.797L282.556 627.84ZM28.9165 718.092C30.1709 717.358 30.4462 716.272 29.5284 715.415L92.0625 679.314H117.012L61.4226 711.438L62.8758 712.279L121.983 678.152H91.2058L28.0752 714.604C26.558 714.12 24.9117 714.246 23.4861 714.956C23.153 715.066 22.8632 715.278 22.6577 715.563C22.4523 715.847 22.3417 716.189 22.3417 716.539C22.3417 716.89 22.4523 717.232 22.6577 717.516C22.8632 717.8 23.153 718.013 23.4861 718.123C24.3372 718.526 25.2701 718.728 26.2121 718.712C27.154 718.696 28.0795 718.463 28.9165 718.031V718.092ZM-97.3906 667.352L-15.1846 619.931L-16.7143 619.09L-98.8438 666.495L-97.3906 667.352ZM336.416 612.956C336.742 612.839 337.024 612.624 337.223 612.34C337.422 612.057 337.529 611.719 337.529 611.373C337.529 611.026 337.422 610.688 337.223 610.405C337.024 610.122 336.742 609.907 336.416 609.789C335.566 609.364 334.629 609.143 333.678 609.143C332.728 609.143 331.79 609.364 330.94 609.789C329.67 610.524 329.487 611.61 330.313 612.466L212.327 680.584H138.994L32.3125 742.215L33.8422 743.057L139.927 681.869H213.26L331.843 613.399C333.367 613.851 335.007 613.692 336.416 612.956ZM14.5221 706.696C13.0049 706.211 11.3586 706.338 9.93298 707.048C9.59995 707.158 9.31012 707.37 9.10464 707.654C8.8992 707.938 8.78857 708.28 8.78857 708.631C8.78857 708.982 8.8992 709.323 9.10464 709.608C9.31012 709.892 9.59995 710.104 9.93298 710.214C10.7831 710.639 11.7206 710.861 12.6712 710.861C13.6217 710.861 14.5592 710.639 15.4093 710.214C16.679 709.48 16.939 708.378 16.0365 707.522L79.1212 671.084V653.309L19.9984 687.437L21.5281 688.278L77.1173 656.154V670.549L14.5221 706.696ZM300.484 592.244C299.229 592.978 299.031 594.064 299.872 594.921L188.204 659.443C186.687 658.959 185.041 659.085 183.615 659.795C183.282 659.905 182.992 660.117 182.786 660.402C182.581 660.686 182.47 661.028 182.47 661.378C182.47 661.729 182.581 662.071 182.786 662.355C182.992 662.639 183.282 662.852 183.615 662.962C184.465 663.387 185.402 663.608 186.353 663.608C187.304 663.608 188.241 663.387 189.091 662.962C190.346 662.227 190.544 661.126 189.703 660.285L301.448 595.762C302.965 596.246 304.611 596.12 306.037 595.41C306.37 595.3 306.659 595.088 306.865 594.804C307.07 594.519 307.181 594.178 307.181 593.827C307.181 593.476 307.07 593.134 306.865 592.85C306.659 592.566 306.37 592.354 306.037 592.244C305.177 591.806 304.225 591.578 303.26 591.578C302.295 591.578 301.344 591.806 300.484 592.244ZM105.279 614.638C104.946 614.748 104.656 614.961 104.451 615.245C104.245 615.529 104.135 615.871 104.135 616.222C104.135 616.572 104.245 616.914 104.451 617.198C104.656 617.483 104.946 617.695 105.279 617.805C106.129 618.23 107.067 618.452 108.017 618.452C108.968 618.452 109.905 618.23 110.755 617.805C112.01 617.071 112.209 615.985 111.383 615.128L223.051 550.605C224.568 551.09 226.214 550.964 227.64 550.254C227.965 550.136 228.247 549.921 228.446 549.638C228.646 549.354 228.752 549.017 228.752 548.67C228.752 548.324 228.646 547.986 228.446 547.703C228.247 547.419 227.965 547.204 227.64 547.087C226.789 546.662 225.852 546.44 224.901 546.44C223.951 546.44 223.013 546.662 222.163 547.087C220.894 547.821 220.634 548.923 221.536 549.764L109.792 614.287C108.298 613.823 106.683 613.949 105.279 614.638ZM191.829 529.511C190.575 530.245 190.3 531.331 191.217 532.188L72.62 600.718V643.06L-33.4645 704.248L-31.9348 705.09L74.6851 643.55V601.147L192.671 533.029C194.188 533.514 195.834 533.387 197.26 532.677C197.593 532.567 197.883 532.355 198.088 532.071C198.294 531.787 198.404 531.445 198.404 531.094C198.404 530.743 198.294 530.401 198.088 530.117C197.883 529.833 197.593 529.621 197.26 529.511C196.416 529.093 195.487 528.875 194.545 528.875C193.603 528.875 192.673 529.093 191.829 529.511ZM166.712 557.887C165.457 558.606 165.258 559.707 166.1 560.564L86.5403 606.577V650.755L218.094 574.82L216.641 573.979L88.636 647.879V607.082L167.614 561.451C169.133 561.931 170.78 561.799 172.203 561.084C172.531 560.97 172.815 560.758 173.016 560.475C173.217 560.193 173.325 559.855 173.325 559.508C173.325 559.161 173.217 558.823 173.016 558.541C172.815 558.259 172.531 558.046 172.203 557.933C171.359 557.486 170.419 557.248 169.463 557.24C168.507 557.232 167.564 557.454 166.712 557.887ZM272.903 573.184L113.539 665.164C112.02 664.685 110.374 664.816 108.95 665.532C108.623 665.645 108.339 665.858 108.138 666.14C107.937 666.422 107.828 666.76 107.828 667.107C107.828 667.454 107.937 667.792 108.138 668.074C108.339 668.357 108.623 668.569 108.95 668.683C109.8 669.108 110.738 669.33 111.689 669.33C112.639 669.33 113.577 669.108 114.427 668.683C115.681 667.964 115.956 666.862 115.039 666.006L274.402 573.994L272.903 573.184ZM259.396 565.336L99.9863 657.317C98.4691 656.833 96.8228 656.959 95.3972 657.669C95.0641 657.779 94.7744 657.991 94.5688 658.275C94.3634 658.56 94.2528 658.901 94.2528 659.252C94.2528 659.603 94.3634 659.945 94.5688 660.229C94.7744 660.513 95.0641 660.725 95.3972 660.835C96.2473 661.261 97.1848 661.482 98.1354 661.482C99.0859 661.482 100.023 661.261 100.874 660.835C102.143 660.101 102.327 659.015 101.501 658.158L260.865 566.147L259.396 565.336ZM152.608 426.837L23.4861 352.28H-30.0533L-110.791 305.701L-112.32 306.542L-30.9406 353.473H22.5989L151.094 427.679C150.267 428.535 150.451 429.622 151.721 430.356C152.571 430.781 153.508 431.003 154.459 431.003C155.409 431.003 156.347 430.781 157.197 430.356C157.523 430.238 157.805 430.023 158.004 429.74C158.203 429.457 158.31 429.119 158.31 428.773C158.31 428.426 158.203 428.088 158.004 427.805C157.805 427.522 157.523 427.307 157.197 427.189C155.758 426.467 154.093 426.34 152.562 426.837H152.608ZM-145.561 325.786L-147.014 326.627L-50.3065 382.461H14.0326L190.193 484.171L-3.86487 596.221H-56.6089L-138.601 643.55L-137.071 644.391L-55.7216 597.414H-2.97766L193.16 484.216L14.8739 381.268H-49.4499L-145.561 325.786ZM218.966 756.029L137.586 803.005L139.116 803.847L221.092 756.518V726.062L415.089 614.027L591.341 715.736V752.877L687.972 808.757L689.501 807.916L593.329 752.388V715.247L415.089 612.344L218.966 725.542V756.029ZM193.803 710.703L322.297 636.498C323.815 636.974 325.459 636.848 326.886 636.146C327.219 636.036 327.509 635.824 327.715 635.54C327.92 635.255 328.031 634.914 328.031 634.563C328.031 634.212 327.92 633.87 327.715 633.586C327.509 633.302 327.219 633.09 326.886 632.98C326.036 632.554 325.099 632.333 324.148 632.333C323.198 632.333 322.26 632.554 321.41 632.98C320.156 633.699 319.957 634.8 320.798 635.657L191.661 710.214V741.114L111.015 787.693L112.469 788.535L193.757 741.603L193.803 710.703ZM357.48 798.967L439.304 751.73L390.721 723.675H328.233L380.441 693.54L633.208 839.474L416.955 964.312L418.485 965.154L636.176 839.474L380.487 691.858L323.307 724.869H389.956L436.474 751.73L357.542 797.284L253.124 736.999L384.678 661.019L664.215 822.402L665.745 821.561L384.755 659.413L250.218 736.999L357.48 798.967ZM410.836 631.496L239.908 730.146L241.361 730.987L412.213 632.337L410.836 631.496ZM508.232 633.025C507.899 633.135 507.609 633.348 507.404 633.632C507.198 633.916 507.088 634.258 507.088 634.609C507.088 634.959 507.198 635.301 507.404 635.586C507.609 635.87 507.899 636.082 508.232 636.192C509.66 636.894 511.303 637.02 512.821 636.544L641.316 710.749V741.649L722.604 788.58L724.134 787.739L643.35 741.114V710.214L514.228 635.657C515.055 634.8 514.871 633.699 513.601 632.98C512.755 632.559 511.823 632.34 510.878 632.34C509.934 632.34 509.002 632.559 508.156 632.98L508.232 633.025ZM736.065 780.855L737.595 780.014L655.404 732.594L653.875 733.435L736.065 780.855ZM-84.7859 290.679C-85.1135 290.792 -85.3976 291.005 -85.5986 291.288C-85.7997 291.57 -85.9077 291.908 -85.9077 292.255C-85.9077 292.601 -85.7997 292.939 -85.5986 293.222C-85.3976 293.504 -85.1135 293.717 -84.7859 293.83C-83.3623 294.545 -81.716 294.677 -80.1968 294.197L7.73022 344.953L9.25992 344.111L-78.6671 293.356C-77.8258 292.499 -78.0247 291.398 -79.279 290.679C-80.1331 290.249 -81.0761 290.025 -82.0324 290.025C-82.9888 290.025 -83.9319 290.249 -84.7859 290.679ZM197.245 435.801C197.572 435.688 197.856 435.475 198.057 435.193C198.258 434.911 198.366 434.573 198.366 434.226C198.366 433.879 198.258 433.541 198.057 433.259C197.856 432.976 197.572 432.764 197.245 432.65C195.821 431.935 194.175 431.803 192.655 432.283L74.6698 364.166V321.839L-32.0113 260.238L-33.541 261.079L72.5435 322.267V364.594L191.141 433.063C190.3 433.92 190.498 435.021 191.753 435.74C192.604 436.2 193.554 436.446 194.522 436.456C195.489 436.467 196.445 436.242 197.306 435.801H197.245ZM359.668 784.573L416.466 751.776L381.94 731.89L325.173 764.625L359.668 784.573ZM328.049 764.687L381.94 733.573L413.559 751.822L359.668 782.936L328.049 764.687ZM733.006 762.055L657.469 718.444L656.016 719.285L731.614 762.866C730.773 763.708 730.971 764.809 732.226 765.543C733.076 765.969 734.013 766.19 734.964 766.19C735.915 766.19 736.852 765.969 737.702 765.543C738.035 765.433 738.325 765.221 738.53 764.937C738.736 764.653 738.846 764.311 738.846 763.96C738.846 763.609 738.736 763.267 738.53 762.983C738.325 762.699 738.035 762.487 737.702 762.377C736.268 761.644 734.602 761.507 733.067 761.994L733.006 762.055ZM-282.117 471.505L-346.15 508.477L-293.712 538.75L-229.694 501.777L-282.117 471.505ZM-232.601 501.777L-293.712 537.068L-343.305 508.477L-282.117 473.187L-232.601 501.777ZM382.445 868.66L341.74 892.156L375.164 911.461L415.869 887.965L382.445 868.66ZM412.963 887.965L375.164 909.717L344.646 892.095L382.445 870.282L412.963 887.965ZM-279.547 456.927L-371.436 509.977L-296.297 553.298L-204.408 500.248L-279.547 456.927ZM-207.33 500.309L-296.297 551.676L-368.514 509.977L-279.547 458.609L-207.33 500.309ZM-201.609 382.736L-384.897 488.561L-373.96 494.878L-190.672 389.054L-201.609 382.736ZM-193.578 389.054L-373.899 493.18L-381.93 488.591L-201.548 384.45L-193.578 389.054ZM-199.406 370.361L-406.328 489.815L-376.163 507.223L-169.241 387.754L-199.406 370.361ZM-172.147 387.769L-376.163 505.556L-403.422 489.815L-199.406 372.028L-172.147 387.769ZM-284.289 483.742L-324.948 507.223L-291.525 526.528L-250.819 503.032L-284.289 483.742ZM-253.695 503.047L-291.479 524.861L-322.073 507.238L-284.289 485.425L-253.695 503.047ZM276.223 736.311L317.892 760.373L319.421 759.531L279.19 736.311L284.927 732.991L298.113 740.64H351.56L326.703 754.988L312.936 747.064L311.482 747.906L326.596 756.64L356.425 739.416H298.862L284.82 731.309L276.223 736.311ZM308.209 734.016H362.972V732.838H309.02L297.057 725.939L381.481 677.203L632.107 821.897L633.637 821.056L381.542 675.52L294.212 726L308.209 734.016ZM582.162 821.545L375.225 941.015L405.391 958.423L612.328 838.953L582.162 821.545ZM609.406 838.953L405.391 956.74L378.147 941.015L582.162 823.228L609.406 838.953ZM387.248 841.845L295.359 894.894L370.483 938.277L462.31 885.242L387.248 841.845ZM459.404 885.242L370.422 936.609L298.205 894.91L387.187 843.542L459.404 885.242ZM384.602 856.453L320.584 893.411L373.022 923.683L437.04 886.772L384.602 856.453ZM434.118 886.772L372.93 922.062L323.49 893.411L384.678 858.121L434.118 886.772ZM579.883 833.982L396.595 939.745L407.532 946.048L590.82 840.223L579.883 833.982ZM587.914 840.284L407.532 944.365L399.516 939.776L579.883 835.634L587.914 840.284Z" fill="url(#paint0_radial_7_456)"/>
<defs>
<radialGradient id="paint0_radial_7_456" cx="0" cy="0" r="1" gradientUnits="userSpaceOnUse" gradientTransform="translate(417.108 483.023) scale(670.268 670.268)">
<stop offset="0.14" stop-color="white"/>
<stop offset="0.15" stop-color="#FCFCFC" stop-opacity="0.99"/>
<stop offset="0.35" stop-color="#A4A4A4" stop-opacity="0.64"/>
<stop offset="0.53" stop-color="#5E5E5E" stop-opacity="0.37"/>
<stop offset="0.68" stop-color="#2B2B2B" stop-opacity="0.17"/>
<stop offset="0.79" stop-color="#0C0C0C" stop-opacity="0.05"/>
<stop offset="0.86" stop-opacity="0"/>
</radialGradient>
</defs>
</svg>
